<?xml version="1.0" encoding="UTF-8"?><svg id="Layer_2" xmlns="http://www.w3.org/2000/svg" xmlns:xlink="http://www.w3.org/1999/xlink" viewBox="0 0 405.05 86.92"><defs><style>.cls-1{fill:url(#linear-gradient-2);}.cls-2{fill:url(#linear-gradient);}</style><linearGradient id="linear-gradient" x1="30.12" y1="51.92" x2="97.49" y2="4.27" gradientTransform="matrix(1, 0, 0, 1, 0, 0)" gradientUnits="userSpaceOnUse"><stop offset="0" stop-color="#246dff"/><stop offset="1" stop-color="#299eff"/></linearGradient><linearGradient id="linear-gradient-2" x1="35.77" y1="59.9" x2="103.13" y2="12.25" xlink:href="#linear-gradient"/></defs><g id="Layer_1-2"><g><path d="M118.27,1h54.43V14.15h-19.77v61.06h-14.88V14.15h-19.77V1Z"/><path d="M195.19,15.35c9.46,0,15.95,4.47,19.46,9.36v-8.4h14.99v58.9h-14.99v-8.61c-3.51,5.1-10.21,9.57-19.56,9.57-14.88,0-26.79-12.23-26.79-30.62s11.91-30.19,26.9-30.19Zm3.83,13.08c-7.97,0-15.52,5.95-15.52,17.12s7.55,17.54,15.52,17.54,15.63-6.17,15.63-17.33-7.44-17.33-15.63-17.33Z"/><path d="M263.82,15.35c9.46,0,15.95,4.47,19.46,9.36v-8.4h14.99v58.9h-14.99v-8.61c-3.51,5.1-10.21,9.57-19.56,9.57-14.88,0-26.79-12.23-26.79-30.62s11.91-30.19,26.9-30.19Zm3.83,13.08c-7.97,0-15.52,5.95-15.52,17.12s7.55,17.54,15.52,17.54,15.63-6.17,15.63-17.33-7.44-17.33-15.63-17.33Z"/><path d="M322.93,75.21h-14.88V16.31h14.88v9.14c3.72-6.06,9.89-9.99,18.07-9.99v15.63h-3.93c-8.82,0-14.14,3.4-14.14,14.78v29.34Z"/><path d="M370.61,15.35c9.46,0,15.95,4.47,19.45,9.36v-8.4h14.99v58.9h-14.99v-8.61c-3.51,5.1-10.21,9.57-19.56,9.57-14.88,0-26.79-12.23-26.79-30.62s11.91-30.19,26.9-30.19Zm3.83,13.08c-7.97,0-15.52,5.95-15.52,17.12s7.55,17.54,15.52,17.54,15.63-6.17,15.63-17.33-7.44-17.33-15.63-17.33Z"/><g><polygon class="cls-2" points="84.17 42.78 84.17 86.92 54.59 54.52 54.59 29.57 29.03 29.57 0 0 43.3 0 84.17 42.78"/><polygon class="cls-1" points="114.94 29.57 84.17 29.57 84.17 0 114.94 29.57"/></g></g></g></svg>